<svg width="45px" height="50px" viewBox="0 0 45 50" version="1.1" xmlns="http://www.w3.org/2000/svg" xmlns:xlink="http://www.w3.org/1999/xlink" class="w-10 h-10"><g stroke="none" stroke-width="1" fill="none" fill-rule="evenodd"><g transform="translate(-760.000000, -6075.000000)"><g transform="translate(0.000000, 5576.000000)"><g transform="translate(398.000000, 339.000000)"><g transform="translate(3.000000, 160.000000)"><g transform="translate(359.000000, 0.000000)"><polygon fill="#1572B6" points="4.29126984 44.8900794 0.301587302 0.13968254 44.1428571 0.13968254 40.1492063 44.8833333 22.1956349 49.8607143"></polygon> <polygon fill="#33A9DC" points="22.222619 46.0563492 36.7301587 42.034127 40.143254 3.7984127 22.222619 3.7984127"></polygon> <polygon fill="#FFFFFF" points="22.222619 20.0115079 29.4853175 20.0115079 29.9869048 14.3912698 22.222619 14.3912698 22.222619 8.90277778 35.9853175 8.90277778 35.8535714 10.3753968 34.5043651 25.5 22.222619 25.5 22.222619 20.0115079"></polygon> <polygon fill="#EBEBEB" points="22.2551587 34.2654762 22.2309524 34.272619 16.1186508 32.6222222 15.7277778 28.2448413 10.2190476 28.2448413 10.9876984 36.8626984 22.2301587 39.9829365 22.2551587 39.9757937 22.2551587 34.2654762"></polygon> <polygon fill="#FFFFFF" points="29.0186508 25.2678571 28.3575397 32.6178571 22.2361111 34.2702381 22.2361111 39.9805556 33.4876984 36.8623016 33.5702381 35.9349206 34.525 25.2678571"></polygon> <path d="M22.2412698,8.90277778 L22.2412698,14.3912698 L8.98412698,14.3912698 L8.87420635,13.1579365 L8.62420635,10.3753968 L8.49285714,8.90277778 L22.2412698,8.90277778 Z M22.222619,20.0123016 L22.222619,25.5007937 L16.1873016,25.5007937 L16.077381,24.2674603 L15.8269841,21.4849206 L15.6960317,20.0123016 L22.222619,20.0123016 Z" fill="#EBEBEB" fill-rule="nonzero"></path></g></g></g></g></g></g></svg>
