<svg width="46px" height="50px" viewBox="0 0 46 50" version="1.1" xmlns="http://www.w3.org/2000/svg" xmlns:xlink="http://www.w3.org/1999/xlink" class="w-10 h-10"><g stroke="none" stroke-width="1" fill="none" fill-rule="evenodd"><g transform="translate(-936.000000, -6375.000000)" fill="#47848F"><g transform="translate(0.000000, 5576.000000)"><g transform="translate(398.000000, 339.000000)"><g transform="translate(360.000000, 460.000000)"><g transform="translate(178.000000, 0.000000)"><path d="M16.0855422,10.440391 C9.58740148,9.24315459 4.45491038,10.4952263 2.40643595,14.0960748 C0.87799367,16.7692936 1.31662947,20.3153069 3.4645883,24.1035093 C3.64815028,24.4265458 4.05610249,24.5380464 4.37577505,24.3525527 C4.69544761,24.1670591 4.80578704,23.7548139 4.62222506,23.4317774 C2.68680111,20.0182826 2.30695154,16.9566474 3.55955069,14.7495283 C5.25982968,11.7747156 9.84063452,10.636884 15.8458752,11.7610068 C16.2080043,11.8278855 16.5552192,11.5854485 16.6214014,11.2195087 C16.6875836,10.8535688 16.4476713,10.5027001 16.0855422,10.4358214 L16.0855422,10.440391 Z M6.84253619,28.6959621 C9.73996134,31.8338033 13.0948186,34.5058667 16.7909771,36.6196567 C26.2148638,42.1031824 36.235657,43.588304 41.2098775,40.1793788 C41.5133166,39.9699098 41.5912628,39.551527 41.3839751,39.2448947 C41.1766875,38.9382624 40.7626616,38.8594959 40.4592224,39.0689649 C36.0005121,42.1260305 26.4545308,40.7185922 17.4421478,35.4498379 C13.8705797,33.4042833 10.6286899,30.8201533 7.82833624,27.7866107 C7.57859205,27.5115249 7.15545553,27.493112 6.88323437,27.7454843 C6.6110132,27.9978566 6.59279201,28.4254459 6.84253619,28.7005317 L6.84253619,28.6959621 Z" fill-rule="nonzero"></path> <path d="M39.972557,27.7749289 C44.1587436,22.715245 45.6179033,17.623682 43.6071101,14.0623204 C42.1301558,11.439118 39.0027496,10.0546501 34.8477036,10 C34.485307,10 34.1915266,10.3007483 34.1915266,10.6717402 C34.1915266,11.0427321 34.485307,11.3434804 34.8477036,11.3434804 C38.5845758,11.3935763 41.2760136,12.586769 42.4904971,14.7363377 C44.1587436,17.6965488 42.855287,22.2370571 38.9894037,26.9141906 C38.8384152,27.0972335 38.7942859,27.3488341 38.8736389,27.5742168 C38.9529918,27.7995995 39.1437714,27.9645233 39.3741128,28.006863 C39.6044542,28.0492028 39.8393631,27.962526 39.9903516,27.779483 L39.972557,27.7749289 Z M29.2201519,10.6239214 C25.1127022,11.5781628 21.1737491,13.1757523 17.542426,15.3602591 C7.97336383,21.0302018 1.72744875,29.3597803 2.57714233,35.4077192 C2.62996624,35.7849991 2.97154824,36.0470069 3.34008708,35.9929302 C3.70862592,35.9388534 3.96456346,35.5891697 3.91173957,35.2118899 C3.1243272,29.8425224 9.04104162,21.941036 18.1963787,16.5261268 C21.7090231,14.4052529 25.5204364,12.8522086 29.4959686,11.9218601 C29.7248354,11.8714216 29.9100318,11.6998196 29.9817961,11.4716949 C30.0535605,11.2435703 30.0009901,10.9935805 29.8438877,10.8158943 C29.6867854,10.6382082 29.4490186,10.5598204 29.2201519,10.6102589 L29.2201519,10.6239214 Z" fill-rule="nonzero"></path> <path d="M13.5170292,39.8792198 C15.7642016,46.1329692 19.3596774,50 23.4270594,50 C26.3933269,50 29.1348772,47.9503371 31.2741853,44.3429303 C31.4702758,44.0272287 31.3767091,43.6102008 31.0651983,43.4114723 C30.7536874,43.2127439 30.3421953,43.3075693 30.1461048,43.6232708 C28.2225252,46.8662931 25.8629942,48.633558 23.4315537,48.633558 C20.0518065,48.633558 16.8293613,45.1992339 14.7844345,39.4146296 C14.6603266,39.0662259 14.2810294,38.8857517 13.9372505,39.0115292 C13.5934716,39.1373067 13.4153931,39.5217065 13.539501,39.8701102 L13.5170292,39.8792198 Z M33.7415806,38.6539769 C34.9371663,34.6213838 35.5295113,30.4299353 35.4988694,26.219355 C35.4988694,15.1010722 31.6606989,5.52231402 26.1910814,3.05816367 C25.8559901,2.90723068 25.4636137,3.06017491 25.3146842,3.39977417 C25.1657547,3.73937344 25.3166687,4.13702842 25.65176,4.28796144 C30.5281241,6.4833782 34.191015,15.5747721 34.191015,26.219355 C34.2208969,30.2940947 33.648254,34.3503796 32.4921527,38.2531539 C32.3829378,38.6065887 32.5771138,38.9828315 32.925857,39.0935157 C33.2746002,39.2041999 33.6458486,39.0074117 33.7550636,38.6539769 L33.7415806,38.6539769 Z" fill-rule="nonzero"></path> <path d="M45.5,37.5 C45.5,35.5670034 43.9329966,34 42,34 C40.0670034,34 38.5,35.5670034 38.5,37.5 C38.5,39.4329966 40.0670034,41 42,41 C42.9282577,41 43.8184964,40.6312511 44.4748737,39.9748737 C45.1312511,39.3184964 45.5,38.4282577 45.5,37.5 Z M44.035461,37.5 C44.035461,38.3232671 43.5395368,39.0654701 42.7789372,39.3805208 C42.0183376,39.6955714 41.1428495,39.521426 40.5607117,38.9392883 C39.978574,38.3571505 39.8044286,37.4816624 40.1194792,36.7210628 C40.4345299,35.9604632 41.1767329,35.464539 42,35.464539 C43.1241541,35.464539 44.035461,36.3758459 44.035461,37.5 Z" fill-rule="nonzero"></path> <path d="M4,41 C5.93299662,41 7.5,39.4329966 7.5,37.5 C7.5,35.5670034 5.93299662,34 4,34 C2.06700338,34 0.5,35.5670034 0.5,37.5 C0.5,39.4329966 2.06700338,41 4,41 Z M4,39.535461 C3.17673288,39.535461 2.43452994,39.0395368 2.11947925,38.2789372 C1.80442856,37.5183376 1.97857396,36.6428495 2.56071173,36.0607117 C3.14284949,35.478574 4.01833756,35.3044286 4.7789372,35.6194792 C5.53953684,35.9345299 6.03546099,36.6767329 6.03546099,37.5 C6.03546099,38.6241541 5.12415407,39.535461 4,39.535461 Z" fill-rule="nonzero"></path> <path d="M23,7 C24.9329966,7 26.5,5.43299662 26.5,3.5 C26.5,1.56700338 24.9329966,0 23,0 C21.0670034,0 19.5,1.56700338 19.5,3.5 C19.5,5.43299662 21.0670034,7 23,7 Z M23,5.53546099 C22.1767329,5.53546099 21.4345299,5.03953684 21.1194792,4.2789372 C20.8044286,3.51833756 20.978574,2.64284949 21.5607117,2.06071173 C22.1428495,1.47857396 23.0183376,1.30442856 23.7789372,1.61947925 C24.5395368,1.93452994 25.035461,2.67673288 25.035461,3.5 C25.035461,4.62415407 24.1241541,5.53546099 23,5.53546099 Z" fill-rule="nonzero"></path> <path d="M23.9364821,27.9516411 C23.1460699,28.1285191 22.3270265,27.8111286 21.8621624,27.1478138 C21.3972983,26.484499 21.3784258,25.6062671 21.8143657,24.9235925 C22.2503056,24.2409179 23.0549581,23.8886314 23.852239,24.0313872 C24.6495198,24.1741429 25.281963,24.7837462 25.4539727,25.5752761 C25.6875062,26.6499176 25.0096059,27.7114981 23.9364821,27.9516411 Z"></path></g></g></g></g></g></g></svg>
