<svg width="50px" height="49px" viewBox="0 0 50 49" version="1.1" xmlns="http://www.w3.org/2000/svg" xmlns:xlink="http://www.w3.org/1999/xlink" class="w-10 h-10"><g stroke="none" stroke-width="1" fill="none" fill-rule="evenodd"><g transform="translate(-397.000000, -7059.000000)" fill="#181616"><g transform="translate(0.000000, 5576.000000)"><g transform="translate(397.000000, 1341.000000)"><g transform="translate(0.000000, 142.000000)"><g><g transform="translate(0.000000, 0.000000)"><path d="M24.999793,0 C11.1945983,0 0,11.2505515 0,25.1303239 C0,36.2339753 7.1632016,45.6534772 17.0963842,48.9768323 C18.3453803,49.209875 18.8040769,48.4316789 18.8040769,47.7679234 C18.8040769,47.1686708 18.7808937,45.1890565 18.7701301,43.0891754 C11.8151635,44.6093628 10.3475827,40.1241235 10.3475827,40.1241235 C9.2103629,37.2194129 7.57180589,36.4470429 7.57180589,36.4470429 C5.30316203,34.8873215 7.74278215,34.9197811 7.74278215,34.9197811 C10.2527799,35.0966438 11.5750515,37.5094678 11.5750515,37.5094678 C13.8047807,41.3505106 17.4234333,40.2402287 18.8500294,39.598529 C19.0744099,37.9743048 19.7222981,36.8652713 20.4372521,36.2377206 C14.8844565,35.6030955 9.04683839,33.4478668 9.04683839,23.8186265 C9.04683839,21.0749651 10.0238456,18.8331778 11.6230739,17.0728732 C11.3630907,16.4403288 10.5073814,13.88435 11.8648418,10.4228339 C11.8648418,10.4228339 13.9637514,9.74742625 18.741151,12.9987878 C20.7357361,12.4415661 22.8748023,12.1614987 24.999793,12.1519273 C27.1235417,12.1614987 29.2638499,12.4407338 31.2621608,12.9979555 C36.0337647,9.74659396 38.1301904,10.4220016 38.1301904,10.4220016 C39.4909627,13.8831015 38.6352534,16.4394965 38.3756841,17.0720409 C39.9786383,18.8323455 40.9486078,21.0741328 40.9486078,23.8177942 C40.9486078,33.4699227 35.100226,35.5947725 29.5333549,36.2173294 C30.4304628,36.9971901 31.2294559,38.5269488 31.2294559,40.8711085 C31.2294559,44.2335815 31.2004769,46.9397896 31.2004769,47.7675072 C31.2004769,48.4362565 31.6508938,49.2198625 32.9176913,48.973087 C42.8450781,45.6464027 50,36.2298138 50,25.1303239 C49.999586,11.2513838 38.8062297,0.000416147643 24.999793,0.000416147643 L24.999793,0 Z"></path> <path d="M9.49135532,35.7291689 C9.43647181,35.8568449 9.24169727,35.8951476 9.06425437,35.8079024 C8.88268488,35.7244875 8.78158369,35.5504226 8.84018112,35.4223211 C8.89382665,35.2903892 9.08901384,35.2542144 9.26934536,35.3423108 C9.45091484,35.4261513 9.55407932,35.6019185 9.49094266,35.7295945 L9.49135532,35.7291689 Z M10.5007166,36.8905944 C10.3822838,37.004226 10.1499574,36.9514533 9.99232203,36.7714302 C9.8289095,36.5926839 9.79837281,36.3530787 9.91928158,36.2377448 C10.0422536,36.1245387 10.2675649,36.1781626 10.4309774,36.356909 C10.5935646,36.5382088 10.6257519,36.7756861 10.5011292,36.89102 L10.5007166,36.8905944 Z M11.4836678,38.3703586 C11.3309843,38.4801599 11.0809136,38.3775936 10.9265796,38.1490536 C10.7738961,37.9200881 10.7738961,37.6455848 10.9307061,37.5362091 C11.0846275,37.4264078 11.3309843,37.5255694 11.4877943,37.7519815 C11.6396525,37.9839261 11.6396525,38.2584294 11.4836678,38.369933 L11.4836678,38.3703586 Z M12.8293452,39.8007548 C12.6931681,39.9560938 12.4018316,39.9143864 12.1889001,39.7028699 C11.9714294,39.4956093 11.9107687,39.2006778 12.0473585,39.0457644 C12.1860115,38.8899997 12.478586,38.9334095 12.6927555,39.1436493 C12.9102262,39.3504843 12.9758388,39.6458413 12.8301706,39.8003292 L12.8293452,39.8007548 Z M14.6863059,40.631074 C14.6256452,40.8323764 14.3458631,40.9238775 14.0631924,40.837909 C13.7813471,40.7498126 13.596889,40.5144633 13.6546611,40.311033 C13.7124332,40.1080282 13.9942785,40.0131224 14.2785999,40.1046235 C14.5604452,40.1922943 14.7449033,40.4263669 14.6863059,40.631074 Z M16.726074,40.7847107 C16.7330892,40.9966528 16.4937476,41.1719944 16.1978718,41.1762503 C15.8995202,41.1834853 15.6581153,41.0115483 15.6552267,40.8030109 C15.6552267,40.5889409 15.8896164,40.4157272 16.1875554,40.409769 C16.4834311,40.4042364 16.7264866,40.574471 16.7264866,40.7842851 L16.726074,40.7847107 Z M18.6234751,40.4519021 C18.6589637,40.6583115 18.4530474,40.8706792 18.1588223,40.9272822 C17.8699617,40.9826084 17.6017341,40.8540813 17.5645949,40.6493742 C17.5291063,40.4374322 17.7387365,40.2250645 18.0275971,40.1701638 C18.3222348,40.1178167 18.5863359,40.2425135 18.6234751,40.4523277 L18.6234751,40.4519021 Z" fill-rule="nonzero"></path></g></g></g></g></g></g></g></svg>
