<svg width="45px" height="50px" viewBox="0 0 45 50" version="1.1" xmlns="http://www.w3.org/2000/svg" xmlns:xlink="http://www.w3.org/1999/xlink" class="w-10 h-10"><g stroke="none" stroke-width="1" fill="none" fill-rule="evenodd"><g transform="translate(-580.000000, -6075.000000)"><g transform="translate(0.000000, 5576.000000)"><g transform="translate(398.000000, 339.000000)"><g transform="translate(3.000000, 160.000000)"><g transform="translate(179.000000, 0.000000)"><polygon fill="#E44D26" points="4.50432979 45.001925 0.5 0 44.5 0 40.4912676 44.9951074 22.4731844 50"></polygon> <polygon fill="#F16529" points="21.5 45 36.0716002 41.0023027 39.5 3 21.5 3"></polygon> <path d="M22.5,20.0800657 L15.1119788,20.0800657 L14.6016487,14.4740043 L22.5,14.4740043 L22.5,9 L8.5,9 L8.63387036,10.4685383 L10.0058387,25.5544678 L22.5,25.5544678 L22.5,20.0800657 Z M22.5,34.2972824 L22.4752543,34.3040443 L16.2575845,32.6573086 L15.8604358,28.2918677 L10.2553244,28.2918677 L11.0374518,36.8871125 L22.4744429,40 L22.5,39.993238 L22.5,34.2972824 Z" fill="#EBEBEB" fill-rule="nonzero"></path> <path d="M22.5,20.0809188 L22.5,25.5557423 L29.3816312,25.5557423 L28.7331409,32.6559476 L22.5,34.3040036 L22.5,40 L33.9572034,36.8892596 L34.0412594,35.9643911 L35.3544827,21.5511613 L35.4905154,20.0809188 L33.984816,20.0809188 L22.5,20.0809188 Z M22.5,9 L22.5,14.4744258 L35.9993184,14.4744258 L36.1113931,13.2444501 L36.3664037,10.4686514 L36.5,9 L22.5,9 Z" fill="#FFFFFF" fill-rule="nonzero"></path></g></g></g></g></g></g></svg>
