<svg width="50px" height="50px" viewBox="0 0 50 50" version="1.1" xmlns="http://www.w3.org/2000/svg" xmlns:xlink="http://www.w3.org/1999/xlink" class="w-10 h-10"><g stroke="none" stroke-width="1" fill="none" fill-rule="evenodd"><g transform="translate(-934.000000, -6075.000000)"><g transform="translate(0.000000, 5576.000000)"><g transform="translate(398.000000, 339.000000)"><g transform="translate(3.000000, 160.000000)"><g transform="translate(533.000000, 0.000000)"><polygon fill="#F0DB4F" points="0 0 50 0 50 50 5.32123766e-16 50"></polygon> <path d="M43.8642405,37.1442719 C43.4968878,34.8999998 42.0050435,33.0149056 37.5859956,31.2571348 C36.0508862,30.5651083 34.3395116,30.0695686 33.8295444,28.9283733 C33.648472,28.264248 33.6244359,27.8901371 33.7390082,27.4881252 C34.067903,26.1834529 35.6554913,25.7767252 36.9137843,26.1508361 C37.7242035,26.4172722 38.4913576,27.029918 38.9540536,28.0072433 C41.1181092,26.6326217 41.1137026,26.6416601 42.6247758,25.6969516 C42.0715436,24.8555952 41.7762994,24.4673373 41.4141546,24.1073735 C40.1125965,22.6812724 38.3391286,21.9468047 35.5028617,22.003 L34.0254391,22.1904484 C32.6097093,22.5413738 31.2604796,23.2703397 30.4692893,24.247665 C28.0953179,26.8900194 28.7723364,31.5145324 31.6610822,33.4177035 C34.5069635,35.5130386 38.6876529,35.9897156 39.2216562,37.9490818 C39.7412379,40.3477925 37.4245527,41.1243083 35.1218886,40.8484409 C33.4249357,40.5022312 32.4811159,39.656159 31.4607809,38.1176675 C29.5827556,39.1838048 29.5827556,39.1838048 27.6518508,40.2731276 C28.1097396,41.2551685 28.5908634,41.6996217 29.3584181,42.5504094 C32.991083,46.1649804 42.0815586,45.9873564 43.7120114,40.5163782 C43.7781109,40.3285368 44.2171714,39.0757371 43.8642405,37.1442719 Z M25.0819847,22.2926215 L20.3913282,22.2926215 L20.3720992,34.1887176 C20.3720992,36.7186815 20.5054999,39.0380116 20.0860689,39.7489008 C19.3998366,41.1471008 17.6215614,40.9737995 16.8111422,40.7026477 C15.9863013,40.3049584 15.5668703,39.7394694 15.0809393,38.9401612 C14.9475386,38.7106646 14.847388,38.5330406 14.8137373,38.5192865 L11,40.8103224 C11.634154,42.0870936 12.5683594,43.1952791 13.7649596,43.9152067 C15.5524486,44.9675899 17.9548628,45.2902212 20.4674427,44.7243393 C22.1027027,44.2570937 23.5136253,43.2891998 24.2523366,41.8159418 C25.3203433,39.8844767 25.0911986,37.5466769 25.0815841,34.9609107 C25.1056203,30.7423394 25.0819847,26.5245539 25.0819847,22.2926215 Z" fill="#323330" fill-rule="nonzero"></path></g></g></g></g></g></g></svg>
