<svg width="448px" height="198px" viewBox="0 0 448 198" version="1.1" xmlns="http://www.w3.org/2000/svg" xmlns:xlink="http://www.w3.org/1999/xlink"><g stroke="none" stroke-width="1" fill="none" fill-rule="evenodd" opacity="0.5"><g transform="translate(-791.000000, -4452.000000)" fill="#979797" fill-rule="nonzero"><path d="M799,4645.71027 L804.878424,4635.25974 L806.621576,4636.24026 L799.871576,4648.24026 L799,4649.78973 L798.128424,4648.24026 L791.378424,4636.24026 L793.121576,4635.25974 L799,4645.71027 Z M1236.20082,4452 L1238.20082,4452 L1238.20082,4465 L1236.20082,4465 L1236.20082,4452 Z M1236.20082,4478 L1238.20082,4478 L1238.20082,4491 L1236.20082,4491 L1236.20082,4478 Z M1236.20082,4504 L1238.20082,4504 L1238.20082,4517 L1236.20082,4517 L1236.20082,4504 Z M1234.32593,4529.28712 L1236.12749,4530.15567 C1234.12862,4534.30174 1230.8068,4537.69284 1226.70406,4539.7782 L1225.79784,4537.9953 C1229.51016,4536.10837 1232.51737,4533.03845 1234.32593,4529.28712 Z M1213.46439,4540.05553 L1213.46907,4542.05553 L1200.46911,4542.08594 L1200.46443,4540.08595 L1213.46439,4540.05553 Z M1187.46447,4540.11636 L1187.46914,4542.11636 L1174.46918,4542.14677 L1174.4645,4540.14678 L1187.46447,4540.11636 Z M1161.46454,4540.17719 L1161.46922,4542.17719 L1148.46925,4542.2076 L1148.46457,4540.20761 L1161.46454,4540.17719 Z M1135.46461,4540.23802 L1135.46929,4542.23802 L1122.46932,4542.26843 L1122.46464,4540.26844 L1135.46461,4540.23802 Z M1109.46468,4540.29886 L1109.46936,4542.29885 L1096.46939,4542.32927 L1096.46471,4540.32927 L1109.46468,4540.29886 Z M1083.46475,4540.35969 L1083.46943,4542.35968 L1070.46947,4542.3901 L1070.46479,4540.3901 L1083.46475,4540.35969 Z M1057.46482,4540.42052 L1057.4695,4542.42051 L1044.46954,4542.45093 L1044.46486,4540.45093 L1057.46482,4540.42052 Z M1031.46489,4540.48135 L1031.46957,4542.48134 L1018.46961,4542.51176 L1018.46493,4540.51176 L1031.46489,4540.48135 Z M1005.46496,4540.54218 L1005.46964,4542.54217 L992.469679,4542.57259 L992.464999,4540.57259 L1005.46496,4540.54218 Z M979.465035,4540.60301 L979.469714,4542.603 L966.46975,4542.63342 L966.465071,4540.63342 L979.465035,4540.60301 Z M953.465106,4540.66384 L953.469785,4542.66383 L940.469821,4542.69425 L940.465142,4540.69426 L953.465106,4540.66384 Z M927.465177,4540.72467 L927.469857,4542.72467 L914.469892,4542.75508 L914.465213,4540.75509 L927.465177,4540.72467 Z M901.465248,4540.7855 L901.469928,4542.7855 L888.469963,4542.81591 L888.465284,4540.81592 L901.465248,4540.7855 Z M875.46532,4540.84633 L875.469999,4542.84633 L862.470035,4542.87674 L862.465355,4540.87675 L875.46532,4540.84633 Z M849.465391,4540.90716 L849.47007,4542.90716 L836.470106,4542.93757 L836.465426,4540.93758 L849.465391,4540.90716 Z M823.465462,4540.96799 L823.470141,4542.96799 L818.955547,4542.97855 C816.199591,4542.985 813.529548,4543.57784 811.080745,4544.70225 L810.246189,4542.88469 C812.954069,4541.64133 815.906968,4540.98568 818.950867,4540.97856 L823.465462,4540.96799 Z M800.478279,4552.07352 L802.241148,4553.01814 C800.793374,4555.72003 800.017381,4558.73932 800.000304,4561.86718 L800,4565.29161 L798,4565.29143 L798.000319,4561.86164 C798.019199,4558.4005 798.877501,4555.06095 800.478279,4552.07352 Z M798,4578.29152 L800,4578.29152 L800,4591.29152 L798,4591.29152 L798,4578.29152 Z M798,4604.29152 L800,4604.29152 L800,4617.29152 L798,4617.29152 L798,4604.29152 Z M798,4630.29152 L800,4630.29152 L800,4635.75 L800,4643.29152 L798,4643.29152 L798,4635.75 L798,4630.29152 Z"></path></g></g></svg>
