<svg width="50px" height="20px" viewBox="0 0 50 20" version="1.1" xmlns="http://www.w3.org/2000/svg" xmlns:xlink="http://www.w3.org/1999/xlink" class="w-10 h-10"><g stroke="none" stroke-width="1" fill="none" fill-rule="evenodd"><g transform="translate(-1469.000000, -6240.000000)" fill="#CB3837" fill-rule="nonzero"><g transform="translate(0.000000, 5576.000000)"><g transform="translate(398.000000, 339.000000)"><g transform="translate(0.000000, 310.000000)"><g><g transform="translate(1071.000000, 15.000000)"><path d="M0,0 L50,0 L50,17.1411765 L25,17.1411765 L25,20 L13.8870968,20 L13.8870968,17.1411765 L0,17.1411765 L0,0 Z M2.27272727,14.4444444 L7.95454545,14.4444444 L7.95454545,5.69244261 L10.7954545,5.69244261 L10.7954545,14.4444444 L13.6363636,14.4444444 L13.6363636,2.77777778 L2.27272727,2.77777778 L2.27272727,14.4444444 Z M16.4772727,2.77777778 L16.4772727,17.2222222 L22.1590909,17.2222222 L22.1590909,14.3349198 L27.8409091,14.3349198 L27.8409091,2.77777778 L16.4772727,2.77777778 Z M22.1590909,5.55555556 L25,5.55555556 L25,11.1111111 L22.1590909,11.1111111 L22.1590909,5.55555556 Z M30.1136364,2.77777778 L30.1136364,14.4444444 L35.6060606,14.4444444 L35.6060606,5.69244261 L38.3522727,5.69244261 L38.3522727,14.4444444 L41.0984848,14.4444444 L41.0984848,5.69244261 L43.844697,5.69244261 L43.844697,14.4444444 L46.5909091,14.4444444 L46.5909091,2.77777778 L30.1136364,2.77777778 Z"></path></g></g></g></g></g></g></g></svg>
