<svg width="50px" height="47px" viewBox="0 0 50 47" version="1.1" xmlns="http://www.w3.org/2000/svg" xmlns:xlink="http://www.w3.org/1999/xlink" class="w-10 h-10"><g stroke="none" stroke-width="1" fill="none" fill-rule="evenodd"><g transform="translate(-755.000000, -5922.000000)" fill="#61DAFB"><g transform="translate(0.000000, 5576.000000)"><g transform="translate(398.000000, 339.000000)"><g transform="translate(1.000000, 0.000000)"><g transform="translate(356.000000, 7.000000)"><circle cx="25.462963" cy="23.6111111" r="5.09259259"></circle> <path d="M42.2923323,15.3630822 C41.413738,15.0318028 40.4952077,14.7005234 39.5367412,14.4106539 C39.7763578,13.4168157 39.9760383,12.4229775 40.1357827,11.4705493 C40.9744409,6.00443914 40.0559105,2.15331611 37.5,0.662558802 C36.7412141,0.207049626 35.9025559,0 34.9440895,0 C32.1485623,0 28.5942492,2.15331611 25,5.75597959 C21.4057508,2.15331611 17.8514377,0 15.0559105,0 C14.0974441,0 13.2587859,0.207049626 12.5,0.662558802 C9.94408946,2.19472603 9.02555911,6.04584907 9.86421725,11.4705493 C10.0239617,12.4229775 10.2236422,13.4168157 10.4632588,14.4106539 C9.50479233,14.7005234 8.58626198,14.9903929 7.70766773,15.3630822 C2.71565495,17.3507586 0,20.0838137 0,23.1481481 C0,26.2124826 2.75559105,28.9455377 7.70766773,30.9332141 C8.58626198,31.2644935 9.50479233,31.5957729 10.4632588,31.8856424 C10.2236422,32.8794806 10.0239617,33.8733188 9.86421725,34.825747 C9.02555911,40.2918572 9.94408946,44.1429802 12.5,45.6337375 C13.2587859,46.0892467 14.0974441,46.2962963 15.0559105,46.2962963 C17.8913738,46.2962963 21.4456869,44.1429802 25,40.5403167 C28.5942492,44.1429802 32.1485623,46.2962963 34.9440895,46.2962963 C35.9025559,46.2962963 36.7412141,46.0892467 37.5,45.6337375 C40.0559105,44.1015703 40.9744409,40.2504472 40.1357827,34.825747 C39.9760383,33.8733188 39.7763578,32.8794806 39.5367412,31.8856424 C40.4952077,31.5957729 41.413738,31.3059034 42.2923323,30.9332141 C47.284345,28.9455377 50,26.2124826 50,23.1481481 C50,20.0838137 47.284345,17.3507586 42.2923323,15.3630822 Z M36.3817891,2.73305506 C38.0191693,3.72689326 38.5782748,6.79122772 37.899361,11.1392699 C37.7795527,12.0088783 37.5798722,12.9198966 37.3402556,13.8723249 C35.2635783,13.3754058 33.0670927,13.0441264 30.7507987,12.8370768 C29.3929712,10.8494004 27.9952077,9.0687736 26.5974441,7.45378652 C29.5527157,4.43086199 32.5479233,2.36036573 34.9840256,2.36036573 C35.5031949,2.36036573 35.9824281,2.48459551 36.3817891,2.73305506 Z M31.9089457,27.2891407 C31.1900958,28.6142583 30.3514377,29.9393759 29.4728435,31.2644935 C27.9952077,31.3887232 26.5175719,31.4301332 25,31.4301332 C23.442492,31.4301332 21.9648562,31.3887232 20.5271565,31.2644935 C19.6485623,29.9393759 18.8498403,28.6142583 18.1309904,27.2891407 C17.3722045,25.9226131 16.6533546,24.5146757 16.014377,23.1481481 C16.6533546,21.7816206 17.3722045,20.3736832 18.1309904,19.0071556 C18.8498403,17.682038 19.6884984,16.3569204 20.5670927,15.0318028 C22.0447284,14.907573 23.5223642,14.8661631 25.0399361,14.8661631 C26.5974441,14.8661631 28.0750799,14.907573 29.5127796,15.0318028 C30.3913738,16.3569204 31.1900958,17.682038 31.9089457,19.0071556 C32.6677316,20.3736832 33.3865815,21.7816206 34.0255591,23.1481481 C33.3466454,24.5146757 32.6677316,25.8812032 31.9089457,27.2891407 Z M35.2236422,25.9226131 C35.8226837,27.3719605 36.3019169,28.779898 36.7412141,30.1878354 C35.3833866,30.5191148 33.9456869,30.7675744 32.428115,30.974624 C32.9073482,30.1878354 33.4265176,29.3596369 33.8658147,28.4900285 C34.3450479,27.6204201 34.784345,26.7508116 35.2236422,25.9226131 Z M25,37.1447028 C24.0415335,36.0680448 23.1230032,34.9085669 22.2444089,33.7076791 C23.1629393,33.749089 24.0814696,33.7904989 25,33.7904989 C25.9185304,33.7904989 26.8370607,33.749089 27.7555911,33.7076791 C26.8769968,34.9085669 25.9584665,36.0680448 25,37.1447028 Z M17.571885,30.9332141 C16.0543131,30.7261644 14.6166134,30.4777049 13.2587859,30.1464255 C13.6980831,28.779898 14.1773163,27.3305506 14.7763578,25.8812032 C15.215655,26.7094017 15.6549521,27.5790101 16.1341853,28.4072086 C16.6134185,29.318227 17.0926518,30.1050156 17.571885,30.9332141 Z M14.7763578,20.3736832 C14.1773163,18.9243358 13.6980831,17.5163983 13.2587859,16.1084609 C14.6166134,15.7771815 16.0543131,15.5287219 17.571885,15.3216723 C17.0926518,16.1084609 16.5734824,16.9366594 16.1341853,17.8062678 C15.6549521,18.6758762 15.215655,19.5454847 14.7763578,20.3736832 Z M25,9.15159345 C25.9584665,10.2282515 26.8769968,11.3877294 27.7555911,12.5886172 C26.8370607,12.5472073 25.9185304,12.5057974 25,12.5057974 C24.0814696,12.5057974 23.1629393,12.5472073 22.2444089,12.5886172 C23.1230032,11.3877294 24.0415335,10.2282515 25,9.15159345 Z M33.8658147,17.8476777 L32.428115,15.3630822 C33.9456869,15.5701318 35.3833866,15.8185914 36.7412141,16.1498708 C36.3019169,17.5163983 35.8226837,18.9657457 35.2236422,20.4150931 C34.784345,19.5454847 34.3450479,18.6758762 33.8658147,17.8476777 Z M12.100639,11.1392699 C11.4217252,6.79122772 11.9808307,3.72689326 13.6182109,2.73305506 C14.0175719,2.48459551 14.4968051,2.36036573 15.0159744,2.36036573 C17.4121406,2.36036573 20.4073482,4.38945206 23.4025559,7.45378652 C22.0047923,9.02736368 20.6070288,10.8494004 19.2492013,12.8370768 C16.9329073,13.0441264 14.7364217,13.4168157 12.6597444,13.8723249 C12.4201278,12.9198966 12.2603834,12.0088783 12.100639,11.1392699 Z M2.23642173,23.1481481 C2.23642173,21.2018817 4.51277955,19.1313854 8.50638978,17.5992182 C9.30511182,17.2679388 10.1837061,16.9780693 11.0623003,16.7296098 C11.701278,18.800106 12.5,20.994832 13.4584665,23.1895581 C12.5,25.3842841 11.6613419,27.5376002 11.0623003,29.6080965 C5.55111821,27.9516995 2.23642173,25.467104 2.23642173,23.1481481 Z M13.6182109,43.5632412 C11.9808307,42.569403 11.4217252,39.5050686 12.100639,35.1570264 C12.2204473,34.287418 12.4201278,33.3763997 12.6597444,32.4239714 C14.7364217,32.9208905 16.9329073,33.2521699 19.2492013,33.4592195 C20.6070288,35.4468959 22.0047923,37.2275227 23.4025559,38.8425098 C20.4472843,41.8654343 17.4520767,43.9359306 15.0159744,43.9359306 C14.4968051,43.9359306 14.0175719,43.8117008 13.6182109,43.5632412 Z M37.899361,35.1570264 C38.5782748,39.5050686 38.0191693,42.569403 36.3817891,43.5632412 C35.9824281,43.8117008 35.5031949,43.9359306 34.9840256,43.9359306 C32.5878594,43.9359306 29.5926518,41.9068442 26.5974441,38.8425098 C27.9952077,37.2689326 29.3929712,35.4468959 30.7507987,33.4592195 C33.0670927,33.2521699 35.2635783,32.8794806 37.3402556,32.4239714 C37.5798722,33.3763997 37.7396166,34.287418 37.899361,35.1570264 Z M41.4936102,28.6970781 C40.6948882,29.0283575 39.8162939,29.318227 38.9376997,29.5666865 C38.298722,27.4961903 37.5,25.3014643 36.5415335,23.1067382 C37.5,20.9120122 38.3386581,18.7586961 38.9376997,16.6881998 C44.4488818,18.3445968 47.7635783,20.8291923 47.7635783,23.1481481 C47.7635783,25.0944146 45.4472843,27.1649109 41.4936102,28.6970781 Z" fill-rule="nonzero"></path></g></g></g></g></g></g></svg>
