<svg width="454px" height="166px" viewBox="0 0 454 166" version="1.1" xmlns="http://www.w3.org/2000/svg" xmlns:xlink="http://www.w3.org/1999/xlink"><g stroke="none" stroke-width="1" fill="none" fill-rule="evenodd" opacity="0.5"><g transform="translate(-974.000000, -4888.000000)" fill="#979797" fill-rule="nonzero"><path d="M1421.30162,5048.07776 L1426.18004,5039.405 L1427.92319,5040.38552 L1421.17319,5052.38552 L1420.30162,5053.93499 L1419.43004,5052.38552 L1412.68004,5040.38552 L1414.42319,5039.405 L1419.30162,5048.07776 L1419.30162,5039.89526 L1419.30162,5038.39776 L1421.30162,5038.39776 L1421.30162,5039.89526 L1421.30162,5048.07776 Z M974,4888 L976,4888 L976,4900 L974,4900 L974,4888 Z M974,4912 L976,4912 L976,4924 L974,4924 L974,4912 Z M974,4936 L976,4936 L976,4942.5515 C976,4944.30448 976.23722,4946.02511 976.700112,4947.68026 L974.774017,4948.21892 C974.262203,4946.38884 974,4944.48701 974,4942.5515 L974,4936 Z M981.562855,4958.69043 L982.843345,4957.15409 C985.782933,4959.60414 989.391444,4961.11985 993.25127,4961.47202 L993.069546,4963.46375 C988.802404,4963.07442 984.811533,4961.3981 981.562855,4958.69043 Z M1005.22282,4963.60589 L1005.23341,4961.60592 L1017.23324,4961.66943 L1017.22266,4963.6694 L1005.22282,4963.60589 Z M1029.22249,4963.73291 L1029.23307,4961.73294 L1041.2329,4961.79644 L1041.22232,4963.79642 L1029.22249,4963.73291 Z M1053.22215,4963.85992 L1053.23274,4961.85995 L1065.23257,4961.92346 L1065.22198,4963.92343 L1053.22215,4963.85992 Z M1077.22182,4963.98694 L1077.2324,4961.98696 L1089.23223,4962.05047 L1089.22165,4964.05044 L1077.22182,4963.98694 Z M1101.22148,4964.11395 L1101.23206,4962.11398 L1113.2319,4962.17748 L1113.22131,4964.17746 L1101.22148,4964.11395 Z M1125.22114,4964.24096 L1125.23173,4962.24099 L1137.23156,4962.3045 L1137.22098,4964.30447 L1125.22114,4964.24096 Z M1149.22081,4964.36798 L1149.23139,4962.368 L1161.23122,4962.43151 L1161.22064,4964.43148 L1149.22081,4964.36798 Z M1173.22047,4964.49499 L1173.23106,4962.49502 L1185.23089,4962.55853 L1185.2203,4964.5585 L1173.22047,4964.49499 Z M1197.22014,4964.622 L1197.23072,4962.62203 L1209.23055,4962.68554 L1209.21997,4964.68551 L1197.22014,4964.622 Z M1221.2198,4964.74902 L1221.23038,4962.74905 L1233.23022,4962.81255 L1233.21963,4964.81252 L1221.2198,4964.74902 Z M1245.21946,4964.87603 L1245.23005,4962.87606 L1257.22988,4962.93957 L1257.2193,4964.93954 L1245.21946,4964.87603 Z M1269.21913,4965.00305 L1269.22971,4963.00307 L1281.22954,4963.06658 L1281.21896,4965.06655 L1269.21913,4965.00305 Z M1293.21879,4965.13006 L1293.22938,4963.13009 L1305.22921,4963.19359 L1305.21862,4965.19357 L1293.21879,4965.13006 Z M1317.21846,4965.25707 L1317.22904,4963.2571 L1329.22887,4963.32061 L1329.21829,4965.32058 L1317.21846,4965.25707 Z M1341.21812,4965.38409 L1341.2287,4963.38411 L1353.22854,4963.44762 L1353.21795,4965.44759 L1341.21812,4965.38409 Z M1365.21778,4965.5111 L1365.22837,4963.51113 L1377.2282,4963.57463 L1377.21761,4965.57461 L1365.21778,4965.5111 Z M1389.21745,4965.63811 L1389.22803,4963.63814 L1400.41276,4963.69733 C1400.69851,4963.69885 1400.98359,4963.70607 1401.26788,4963.71898 L1401.17717,4965.71692 C1400.91957,4965.70522 1400.6612,4965.69868 1400.40217,4965.69731 L1389.21745,4965.63811 Z M1411.78093,4969.55545 L1412.99046,4967.96264 C1416.36727,4970.52688 1418.90641,4974.0594 1420.24165,4978.09261 L1418.34299,4978.72118 C1417.13537,4975.07343 1414.83738,4971.87642 1411.78093,4969.55545 Z M1419.30162,4990.39776 L1421.30162,4990.39776 L1421.30162,5002.39776 L1419.30162,5002.39776 L1419.30162,4990.39776 Z M1419.30162,5014.39776 L1421.30162,5014.39776 L1421.30162,5026.39776 L1419.30162,5026.39776 L1419.30162,5014.39776 Z"></path></g></g></svg>
