<svg width="50px" height="38px" viewBox="0 0 50 38" version="1.1" xmlns="http://www.w3.org/2000/svg" xmlns:xlink="http://www.w3.org/1999/xlink" class="w-10 h-10"><g stroke="none" stroke-width="1" fill="none" fill-rule="evenodd"><g transform="translate(-1112.000000, -6381.000000)" fill="#CB6699"><g transform="translate(0.000000, 5576.000000)"><g transform="translate(398.000000, 339.000000)"><g transform="translate(360.000000, 460.000000)"><path d="M354,21.5592509 C354,21.838599 354.082435,22.0229766 354.12863,22.2021886 C354.429696,23.3676621 355.076828,24.3678316 355.844625,25.2801832 C356.938178,26.5803637 358.277442,27.6270249 359.649362,28.6112997 C360.839288,29.4648412 362.053507,30.2993092 363.248212,31.1464928 C363.453303,31.2919287 363.647243,31.4592196 363.869857,31.6376368 C363.678306,31.7409519 363.519012,31.8319486 363.353346,31.9157928 C361.776734,32.7137031 360.259856,33.6081733 358.861653,34.6917895 C358.018988,35.3450587 357.204199,36.0392566 356.628749,36.9464424 C355.702853,38.4055692 355.375106,39.9600638 356.065247,41.6198603 C356.266754,42.1046464 356.574191,42.5234698 357.007869,42.8330177 C357.148446,42.9331539 357.306147,43.0324953 357.470618,43.0714371 C357.891951,43.1703812 358.321248,43.2351518 358.747758,43.3134328 L359.955605,43.3126381 C361.291285,43.1938258 362.507097,42.7372526 363.605827,41.9806683 C365.323016,40.798108 366.479889,39.2126189 366.977285,37.1777092 C367.338882,35.6987142 367.353617,34.2181296 366.927505,32.7458897 C366.88808,32.6091959 366.838301,32.4752837 366.78653,32.3429609 C366.73476,32.2106381 366.67383,32.0818917 366.602147,31.9169849 L369.340411,30.345801 L369.38143,30.3807692 C369.33165,30.5432917 369.278685,30.7054169 369.233684,30.8695289 C368.908326,32.0552682 368.692085,33.2616704 368.769741,34.4923119 C368.852573,35.8036187 369.219348,37.0310813 369.988738,38.1266185 C370.610781,39.012744 372.093012,39.0457253 372.754082,38.1564209 C372.988642,37.8405152 373.216035,37.5103043 373.386877,37.157841 C373.833299,36.2379394 374.246667,35.3017458 374.673176,34.3719101 L374.747646,34.2018376 C374.716982,34.6421188 374.681141,35.0287556 374.664814,35.4157898 C374.639327,36.020183 374.674769,36.6209999 374.881852,37.1959881 C375.059066,37.6879268 375.36053,38.0554901 375.925227,38.1202607 C376.311515,38.1643683 376.619351,37.9879379 376.903293,37.764221 C377.346926,37.4149366 377.707329,36.9833974 377.974943,36.4930482 C378.731988,35.1058445 379.509343,33.7269856 380.195502,32.3048138 C380.937812,30.7666112 381.586935,29.1835063 382.27628,27.6190776 L382.390175,27.3417164 C382.553053,27.980283 382.66655,28.6057366 382.875623,29.1978115 C383.118547,29.8848568 383.419214,30.5556101 383.746563,31.2076872 C383.901477,31.5156456 383.883556,31.7155205 383.668907,31.9738082 C382.770489,33.0546429 381.887602,34.1485906 381.003919,35.2413462 C380.808385,35.4825472 380.613648,35.7281192 380.45077,35.9915727 C380.352406,36.151711 380.287096,36.3468176 380.259617,36.5335795 C380.206652,36.8904139 380.427673,37.2345325 380.810376,37.3167872 C381.160027,37.3918894 381.532377,37.419705 381.888797,37.3934788 C383.122131,37.3028794 384.241968,36.8709429 385.23198,36.1389953 C386.514695,35.1908808 386.92647,33.8970581 386.615847,32.3636239 C386.531819,31.9475821 386.383277,31.5430638 386.238718,31.1421218 C386.173806,30.9613204 386.169425,30.8345608 386.287701,30.6660777 C387.313156,29.2049641 388.189273,27.6548405 389.004062,26.0689541 C389.036319,26.0065677 389.069373,25.9441812 389.125922,25.8774238 C389.389952,27.2483354 389.78739,28.5695763 390.499435,29.7684286 C390.136244,30.1177131 389.776638,30.4344135 389.45128,30.7833006 C388.734855,31.5518058 388.113608,32.3862738 387.789445,33.4039273 C387.650063,33.842619 387.542938,34.2884633 387.605062,34.7569575 C387.701435,35.4845341 388.298788,35.9573992 389.016009,35.7916977 C390.550807,35.4372475 391.875735,34.7156314 392.843844,33.437306 C393.495357,32.5766119 393.554694,31.6165764 393.281903,30.6108439 C393.207034,30.3374563 393.118228,30.0684397 393.022652,29.7549182 C393.401373,29.6376953 393.770537,29.4970279 394.152444,29.4100048 C396.135257,28.9585974 398.096564,29.0372758 400.007296,29.7517393 C401.122752,30.1689732 402.023958,30.8671448 402.558389,31.9654635 C403.211096,33.3081622 402.850295,34.5821166 401.581917,35.4308897 C401.463641,35.5099655 401.328241,35.5723519 401.230275,35.6712959 C401.170142,35.7320929 401.133903,35.8536868 401.148637,35.9375309 C401.157,35.9864069 401.286427,36.0476012 401.360897,36.0468065 C401.777849,36.0436276 402.11595,35.8254738 402.440512,35.6013596 C403.253708,35.0398818 403.847078,34.2844897 403.974911,33.2898834 L404,33.2151786 L403.969336,32.5674725 C403.956991,32.5301202 403.978495,32.4931652 403.975708,32.4649522 C403.802874,31.0165543 403.02751,29.8932015 401.899708,29.0126391 C400.593498,27.9933961 399.051133,27.5737779 397.419963,27.5074179 C396.090654,27.4533761 394.784045,27.6504695 393.531198,28.1046585 C393.173981,28.2338023 392.81995,28.3867881 392.460742,28.5310319 C392.412556,28.4440088 392.360785,28.360562 392.318174,28.2743336 C391.949408,27.5209283 391.502589,26.8009017 391.403826,25.9370287 C391.333737,25.323496 391.247718,24.7107582 391.39387,24.1039807 C391.534447,23.5202506 391.717635,22.9464545 391.890071,22.3706716 C391.978878,22.0742368 391.916355,21.908138 391.632811,21.7746231 C391.534049,21.7281313 391.426526,21.6876 391.319799,21.6721027 C390.622887,21.5711719 389.935534,21.6287899 389.260525,21.8246912 C389.021584,21.8942302 388.847954,22.027745 388.794989,22.2915958 C388.764723,22.4429922 388.702996,22.5880306 388.659987,22.7374401 C388.483569,23.3585227 388.358523,23.9915263 388.073387,24.5832038 C387.358953,26.0673646 386.543368,27.4954969 385.708667,28.9132977 C385.618268,29.0662835 385.52309,29.2164877 385.409194,29.4020575 C385.116093,28.7901143 384.803479,28.2409549 384.708699,27.5972225 C384.601574,26.8692486 384.517148,26.1424667 384.698743,25.4200559 C384.833745,24.881228 385.010163,24.3523343 385.172643,23.820659 C385.249502,23.5679344 385.214059,23.4352143 384.984676,23.3020968 C384.86879,23.234942 384.73777,23.1753371 384.607149,23.1558662 C383.884353,23.0489748 383.172308,23.1050034 382.474999,23.3299124 C382.258757,23.3998487 382.14526,23.5393241 382.079153,23.7618489 C381.884815,24.418297 381.719149,25.0906397 381.446358,25.7149012 C380.341654,28.242147 379.205091,30.7562797 378.069723,33.2700151 C377.832773,33.7949351 377.555203,34.3015764 377.287988,34.8125887 C377.220288,34.9421299 377.121525,35.0561738 377.0371,35.1777677 C376.9694,35.0978972 376.943116,35.0430608 376.943514,34.9882243 C376.945506,34.665166 376.906877,34.3325709 376.968603,34.0202415 C377.155375,33.0753059 377.370422,32.135536 377.597018,31.1993425 C377.784188,30.4260688 378.002023,29.6599478 378.209503,28.8918399 C378.279195,28.6347443 378.280389,28.3943381 378.09521,28.1781711 C377.784188,27.816171 377.134269,27.7366979 376.748777,28.0156486 L376.578333,28.1118111 L376.611386,27.8376288 C376.692626,27.2499249 376.708954,26.6642079 376.54727,26.0852461 C376.345764,25.36363 375.829651,24.9483828 375.079376,24.97143 C374.729726,24.9821589 374.362553,25.0417638 374.038788,25.1689208 C372.677223,25.7013908 371.630263,26.6443396 370.739013,27.7788186 C370.658171,27.8817363 370.551444,27.9755146 370.437549,28.0386958 C369.285455,28.6760704 368.129777,29.3054976 366.974497,29.937309 L365.688596,30.6402489 C365.343725,30.3120249 365.030314,29.9714825 364.67469,29.6825976 C363.588703,28.7988563 362.485194,27.9369702 361.39164,27.063163 C360.422336,26.2886973 359.483298,25.482045 358.764882,24.4564441 C358.230451,23.693502 357.885977,22.8586367 357.852924,21.9152905 C357.811109,20.7132593 358.152795,19.6149406 358.766077,18.5925187 C359.5506,17.2843908 360.620657,16.2345507 361.797044,15.2836546 C363.041528,14.2783194 364.387562,13.4247779 365.78258,12.6455438 C367.734329,11.5555697 369.741832,10.5907658 371.894292,9.9537886 C374.101311,9.3005194 376.340587,8.92659829 378.65035,9.18727018 C379.558326,9.28979053 380.440018,9.49721542 381.24963,9.94027816 C381.869682,10.2792311 382.378228,10.7230886 382.614779,11.4168891 C382.848145,12.0995633 382.840977,12.791377 382.679293,13.4847801 C382.350749,14.8890704 381.580165,16.0465967 380.610462,17.0809396 C379.019912,18.776499 377.079711,19.9308463 374.895392,20.693391 C373.634978,21.1332749 372.338325,21.409444 371.006627,21.5211038 C369.919843,21.6121005 368.855759,21.515938 367.82672,21.138838 C367.14534,20.888895 366.55197,20.5066292 366.074884,19.9519067 C365.989662,19.8525652 365.880545,19.7448791 365.72165,19.8378627 C365.56594,19.9292568 365.538462,20.0770769 365.59063,20.2268837 C365.677844,20.4756346 365.758287,20.7347171 365.894085,20.9572419 C366.235373,21.5155407 366.733167,21.9204563 367.281138,22.2677539 C368.333673,22.9357256 369.510059,23.1602372 370.729853,23.2122921 C372.58085,23.2921626 374.386846,23.0163909 376.167354,22.5208758 C378.709288,21.8135649 380.919493,20.5642472 382.692037,18.5933134 C384.167896,16.9521931 385.222024,15.1000716 385.447823,12.8636975 C385.558134,11.772134 385.440655,10.7028229 384.928525,9.7070245 C384.372987,8.62817666 383.489702,7.82589534 382.433582,7.27315966 C380.895599,6.46849415 379.235755,6 377.522548,6 L375.806155,6 C373.731351,6 371.725441,6.59326697 369.775682,7.30097526 C368.299823,7.83702158 366.852637,8.46962775 365.447664,9.16978609 C362.388024,10.695273 359.538653,12.5346787 357.198225,15.0639113 C356.032193,16.3239579 355.044969,17.7143405 354.477086,19.3514871 C354.311022,19.8307101 354.15332,20.344504 354.034646,20.840019 L354,21.5592509 Z M365.121111,35.1503495 C364.988499,36.9222031 364.183666,38.3586801 362.868296,39.5221668 C362.128375,40.1762307 361.279736,40.6419433 360.291317,40.805658 C359.932905,40.8648655 359.566131,40.8791706 359.218472,40.7309532 C358.722669,40.5195547 358.611562,40.0804656 358.602004,39.6127662 C358.587269,38.8673082 358.84891,38.1933759 359.207719,37.5520277 C359.676044,36.7159703 360.362601,36.0785958 361.095752,35.483342 C362.250633,34.5451616 363.503481,33.7512249 364.786594,33.0017932 L364.883365,32.9620567 C365.081686,33.6932095 365.176068,34.415223 365.121111,35.1503495 Z M375.139908,27.4497998 C375.046323,28.0156486 374.929242,28.5818947 374.763576,29.1302593 C374.190914,31.0284752 373.455374,32.867881 372.660098,34.6826501 C372.51315,35.0184241 372.299298,35.324793 372.113322,35.643083 C372.084649,35.6923563 372.042038,35.7348744 372.000621,35.7758031 C371.770441,36.0026989 371.552209,35.9907779 371.435924,35.6939458 C371.300524,35.3490324 371.217293,34.9798796 371.145611,34.6147006 C371.097424,34.3695259 371.108973,34.112033 371.09384,33.8608978 C371.109371,32.0751364 371.655351,30.452295 372.581646,28.9415106 C372.963554,28.3184412 373.379311,27.7247769 374.014496,27.3305901 C374.209631,27.2093936 374.42866,27.112039 374.649681,27.05005 C374.98818,26.9550796 375.196059,27.1112443 375.139908,27.4497998 Z M381.975214,36.1393927 L384.431926,33.2771677 C384.534272,34.3401209 382.723497,36.4620536 381.975214,36.1393927 Z M389.821638,34.2133612 C389.648008,34.3127026 389.458846,34.3842285 389.280835,34.4760199 C389.117957,34.5602615 389.064195,34.4752252 389.059417,34.3353525 C389.056231,34.2403821 389.070169,34.1410407 389.096453,34.0488518 C389.428182,32.8813914 390.038677,31.8847983 390.947051,31.0741723 L391.010768,31.0415883 C391.442853,32.2475932 390.943467,33.572013 389.821638,34.2133612 Z"></path></g></g></g></g></g></svg>
