<svg width="16px" height="74px" viewBox="0 0 16 74" version="1.1" xmlns="http://www.w3.org/2000/svg" xmlns:xlink="http://www.w3.org/1999/xlink"><g stroke="none" stroke-width="1" fill="none" fill-rule="evenodd" opacity="0.499627976"><g transform="translate(-377.000000, -6231.000000)" fill="#979797" fill-rule="nonzero"><g transform="translate(122.000000, 679.000000)"><g transform="translate(37.000000, 2110.000000)"><path d="M226.009082,3511.7103 L231.960955,3501.30143 L233.697157,3502.2942 L226.86282,3514.24637 L225.980355,3515.78966 L225.119712,3514.23409 L218.454384,3502.18686 L220.204397,3501.21863 L226.009082,3511.7103 Z M225.500025,3441.99296 L227.499975,3442.00704 L227.408428,3455.00672 L225.408478,3454.99264 L225.500025,3441.99296 Z M225.316931,3467.99231 L227.316881,3468.0064 L227.225334,3481.00608 L225.225384,3480.99199 L225.316931,3467.99231 Z M225.133837,3493.99167 L227.133787,3494.00575 L227.079127,3501.76746 L227.04224,3507.00543 L225.04229,3506.99135 L225.079177,3501.75338 L225.133837,3493.99167 Z"></path></g></g></g></g></svg>
