<svg width="46px" height="50px" viewBox="0 0 46 50" version="1.1" xmlns="http://www.w3.org/2000/svg" xmlns:xlink="http://www.w3.org/1999/xlink" class="w-10 h-10"><g stroke="none" stroke-width="1" fill="none" fill-rule="evenodd"><g transform="translate(-1293.000000, -6225.000000)" fill-rule="nonzero"><g transform="translate(0.000000, 5576.000000)"><g transform="translate(398.000000, 339.000000)"><g transform="translate(0.000000, 310.000000)"><g><g transform="translate(895.000000, 0.000000)"><path d="M44.1133122,38.531746 L23.8874802,50 L23.8874802,41.0674603 L36.4706815,34.1269841 L44.1133122,38.531746 Z M45.5,37.2777778 L45.5,13.3134921 L38.0990491,17.5992063 L38.0990491,33 L45.496038,37.2738095 L45.5,37.2777778 Z M1.8866878,38.531746 L22.09271,49.9920635 L22.09271,41.0674603 L9.50554675,34.1269841 L1.8866878,38.531746 Z M0.5,37.2777778 L0.5,13.3134921 L7.90095087,17.5992063 L7.90095087,33 L0.5,37.2777778 Z M1.36767036,11.7619048 L22.1125198,0 L22.1125198,8.63492063 L8.82012678,15.9563492 L8.71315372,16.015873 L1.36767036,11.7619048 Z M44.6244057,11.7619048 L23.8874802,0 L23.8874802,8.63492063 L37.1798732,15.952381 L37.2868463,16.0119048 L44.6323296,11.7619048 L44.6244057,11.7619048 Z" fill="#8ED6FB"></path> <path d="M22.1008029,39 L9.5,32.1119516 L9.5,18.4794389 L22.1008029,25.6905515 L22.1008029,39 Z M23.8991971,39 L36.5,32.1199285 L36.5,18.4794389 L23.8991971,25.6905515 L23.8991971,39 Z M10.3550401,16.9159675 L23,10 L35.6449599,16.9159675 L23,24.1589878 L10.3550401,16.9159675 Z" fill="#1C78C0"></path></g></g></g></g></g></g></g></svg>
